<svg width="30" height="30" viewBox="0 0 30 30" fill="none" xmlns="http://www.w3.org/2000/svg">
<path fill-rule="evenodd" clip-rule="evenodd" d="M9.5 5.5C8.39543 5.5 7.5 6.39543 7.5 7.5V22.5C7.5 23.6046 8.39543 24.5 9.5 24.5H20.5C21.6046 24.5 22.5 23.6046 22.5 22.5V7.5C22.5 6.39543 21.6046 5.5 20.5 5.5H9.5ZM5.5 7.5C5.5 5.29086 7.29086 3.5 9.5 3.5H20.5C22.7091 3.5 24.5 5.29086 24.5 7.5V22.5C24.5 24.7091 22.7091 26.5 20.5 26.5H9.5C7.29086 26.5 5.5 24.7091 5.5 22.5V7.5Z" fill="black"/>
<path d="M3 12C2.44772 12 2 12.4477 2 13C2 13.5523 2.44772 14 3 14H5V12H3Z" fill="black"/>
<path d="M27 12H25V14H27C27.5523 14 28 13.5523 28 13C28 12.4477 27.5523 12 27 12Z" fill="black"/>
<path d="M3 16C2.44772 16 2 16.4477 2 17C2 17.5523 2.44772 18 3 18H5V16H3Z" fill="black"/>
<path d="M27 16H25V18H27C27.5523 18 28 17.5523 28 17C28 16.4477 27.5523 16 27 16Z" fill="black"/>
</svg>
