<svg width="30" height="30" viewBox="0 0 30 30" fill="none" xmlns="http://www.w3.org/2000/svg">
<path fill-rule="evenodd" clip-rule="evenodd" d="M15 8.5C11.4101 8.5 8.5 11.4101 8.5 15C8.5 18.5899 11.4101 21.5 15 21.5C18.5899 21.5 21.5 18.5899 21.5 15C21.5 11.4101 18.5899 8.5 15 8.5ZM6.5 15C6.5 10.3056 10.3056 6.5 15 6.5C19.6944 6.5 23.5 10.3056 23.5 15C23.5 19.6944 19.6944 23.5 15 23.5C10.3056 23.5 6.5 19.6944 6.5 15Z" fill="black"/>
<path fill-rule="evenodd" clip-rule="evenodd" d="M15 2.5C15.5523 2.5 16 2.94772 16 3.5V5.5C16 6.05228 15.5523 6.5 15 6.5C14.4477 6.5 14 6.05228 14 5.5V3.5C14 2.94772 14.4477 2.5 15 2.5ZM15 23.5C15.5523 23.5 16 23.9477 16 24.5V26.5C16 27.0523 15.5523 27.5 15 27.5C14.4477 27.5 14 27.0523 14 26.5V24.5C14 23.9477 14.4477 23.5 15 23.5ZM26.5 15C26.5 14.4477 26.0523 14 25.5 14H23.5C22.9477 14 22.5 14.4477 22.5 15C22.5 15.5523 22.9477 16 23.5 16H25.5C26.0523 16 26.5 15.5523 26.5 15ZM5.5 14C6.05228 14 6.5 14.4477 6.5 15C6.5 15.5523 6.05228 16 5.5 16H3.5C2.94772 16 2.5 15.5523 2.5 15C2.5 14.4477 2.94772 14 3.5 14H5.5Z" fill="black"/>
</svg>
